  0
SECTION
  2
HEADER
  9
$ACADVER
  1
AC1015
  9
$ACADMAINTVER
 70
     6
  9
$DWGCODEPAGE
  3
ANSI_1252
  9
$INSBASE
 10
0.0
 20
0.0
 30
0.0
  9
$EXTMIN
 10
-4.5223621727
 20
-5.8754331044
 30
0.0
  9
$EXTMAX
 10
4.3976378419
 20
2.6265674995
 30
0.0
  9
$LIMMIN
 10
0.0
 20
0.0
  9
$LIMMAX
 10
12.0
 20
9.0
  9
$ORTHOMODE
 70
     0
  9
$REGENMODE
 70
     1
  9
$FILLMODE
 70
     1
  9
$QTEXTMODE
 70
     0
  9
$MIRRTEXT
 70
     1
  9
$LTSCALE
 40
1.0
  9
$ATTMODE
 70
     1
  9
$TEXTSIZE
 40
0.1377952756
  9
$TRACEWID
 40
0.05
  9
$TEXTSTYLE
  7
Standard
  9
$CLAYER
  8
0
  9
$CELTYPE
  6
ByLayer
  9
$CECOLOR
 62
   256
  9
$CELTSCALE
 40
1.0
  9
$DISPSILH
 70
     0
  9
$DIMSCALE
 40
1.0
  9
$DIMASZ
 40
0.13
  9
$DIMEXO
 40
0.0393700787
  9
$DIMDLI
 40
0.38
  9
$DIMRND
 40
0.0
  9
$DIMDLE
 40
0.0
  9
$DIMEXE
 40
0.0393700787
  9
$DIMTP
 40
0.0
  9
$DIMTM
 40
0.0
  9
$DIMTXT
 40
0.1377952756
  9
$DIMCEN
 40
0.09
  9
$DIMTSZ
 40
0.0
  9
$DIMTOL
 70
     0
  9
$DIMLIM
 70
     0
  9
$DIMTIH
 70
     1
  9
$DIMTOH
 70
     1
  9
$DIMSE1
 70
     0
  9
$DIMSE2
 70
     0
  9
$DIMTAD
 70
     1
  9
$DIMZIN
 70
     0
  9
$DIMBLK
  1

  9
$DIMASO
 70
     1
  9
$DIMSHO
 70
     1
  9
$DIMPOST
  1

  9
$DIMAPOST
  1

  9
$DIMALT
 70
     0
  9
$DIMALTD
 70
     2
  9
$DIMALTF
 40
25.4
  9
$DIMLFAC
 40
1.0
  9
$DIMTOFL
 70
     0
  9
$DIMTVP
 40
0.0
  9
$DIMTIX
 70
     0
  9
$DIMSOXD
 70
     0
  9
$DIMSAH
 70
     0
  9
$DIMBLK1
  1

  9
$DIMBLK2
  1

  9
$DIMSTYLE
  2
Standard
  9
$DIMCLRD
 70
     0
  9
$DIMCLRE
 70
     0
  9
$DIMCLRT
 70
     0
  9
$DIMTFAC
 40
1.0
  9
$DIMGAP
 40
0.06
  9
$DIMJUST
 70
     0
  9
$DIMSD1
 70
     0
  9
$DIMSD2
 70
     0
  9
$DIMTOLJ
 70
     1
  9
$DIMTZIN
 70
     0
  9
$DIMALTZ
 70
     0
  9
$DIMALTTZ
 70
     0
  9
$DIMUPT
 70
     0
  9
$DIMDEC
 70
     2
  9
$DIMTDEC
 70
     2
  9
$DIMALTU
 70
     2
  9
$DIMALTTD
 70
     2
  9
$DIMTXSTY
  7
Standard
  9
$DIMAUNIT
 70
     0
  9
$DIMADEC
 70
     2
  9
$DIMALTRND
 40
0.0
  9
$DIMAZIN
 70
     0
  9
$DIMDSEP
 70
    46
  9
$DIMATFIT
 70
     3
  9
$DIMFRAC
 70
     0
  9
$DIMLDRBLK
  1

  9
$DIMLUNIT
 70
     2
  9
$DIMLWD
 70
    -2
  9
$DIMLWE
 70
    -2
  9
$DIMTMOVE
 70
     0
  9
$LUNITS
 70
     2
  9
$LUPREC
 70
     2
  9
$SKETCHINC
 40
0.1
  9
$FILLETRAD
 40
0.5
  9
$AUNITS
 70
     0
  9
$AUPREC
 70
     2
  9
$MENU
  1
.
  9
$ELEVATION
 40
0.0
  9
$PELEVATION
 40
0.0
  9
$THICKNESS
 40
0.0
  9
$LIMCHECK
 70
     0
  9
$CHAMFERA
 40
0.0
  9
$CHAMFERB
 40
0.0
  9
$CHAMFERC
 40
0.0
  9
$CHAMFERD
 40
0.0
  9
$SKPOLY
 70
     0
  9
$TDCREATE
 40
2457707.442266725
  9
$TDUCREATE
 40
2457707.775600058
  9
$TDUPDATE
 40
2457707.442294039
  9
$TDUUPDATE
 40
2457707.775627373
  9
$TDINDWG
 40
0.0000000116
  9
$TDUSRTIMER
 40
0.0000000116
  9
$USRTIMER
 70
     1
  9
$ANGBASE
 50
0.0
  9
$ANGDIR
 70
     0
  9
$PDMODE
 70
     0
  9
$PDSIZE
 40
-1.0
  9
$PLINEWID
 40
0.0
  9
$SPLFRAME
 70
     0
  9
$SPLINETYPE
 70
     6
  9
$SPLINESEGS
 70
     8
  9
$HANDSEED
  5
F2
  9
$SURFTAB1
 70
     6
  9
$SURFTAB2
 70
     6
  9
$SURFTYPE
 70
     6
  9
$SURFU
 70
     6
  9
$SURFV
 70
     6
  9
$UCSBASE
  2

  9
$UCSNAME
  2

  9
$UCSORG
 10
0.0
 20
0.0
 30
0.0
  9
$UCSXDIR
 10
1.0
 20
0.0
 30
0.0
  9
$UCSYDIR
 10
0.0
 20
1.0
 30
0.0
  9
$UCSORTHOREF
  2

  9
$UCSORTHOVIEW
 70
     0
  9
$UCSORGTOP
 10
0.0
 20
0.0
 30
0.0
  9
$UCSORGBOTTOM
 10
0.0
 20
0.0
 30
0.0
  9
$UCSORGLEFT
 10
0.0
 20
0.0
 30
0.0
  9
$UCSORGRIGHT
 10
0.0
 20
0.0
 30
0.0
  9
$UCSORGFRONT
 10
0.0
 20
0.0
 30
0.0
  9
$UCSORGBACK
 10
0.0
 20
0.0
 30
0.0
  9
$PUCSBASE
  2

  9
$PUCSNAME
  2

  9
$PUCSORG
 10
0.0
 20
0.0
 30
0.0
  9
$PUCSXDIR
 10
1.0
 20
0.0
 30
0.0
  9
$PUCSYDIR
 10
0.0
 20
1.0
 30
0.0
  9
$PUCSORTHOREF
  2

  9
$PUCSORTHOVIEW
 70
     0
  9
$PUCSORGTOP
 10
0.0
 20
0.0
 30
0.0
  9
$PUCSORGBOTTOM
 10
0.0
 20
0.0
 30
0.0
  9
$PUCSORGLEFT
 10
0.0
 20
0.0
 30
0.0
  9
$PUCSORGRIGHT
 10
0.0
 20
0.0
 30
0.0
  9
$PUCSORGFRONT
 10
0.0
 20
0.0
 30
0.0
  9
$PUCSORGBACK
 10
0.0
 20
0.0
 30
0.0
  9
$USERI1
 70
     0
  9
$USERI2
 70
     0
  9
$USERI3
 70
     0
  9
$USERI4
 70
     0
  9
$USERI5
 70
     0
  9
$USERR1
 40
0.0
  9
$USERR2
 40
0.0
  9
$USERR3
 40
0.0
  9
$USERR4
 40
0.0
  9
$USERR5
 40
0.0
  9
$WORLDVIEW
 70
     1
  9
$SHADEDGE
 70
     3
  9
$SHADEDIF
 70
    70
  9
$TILEMODE
 70
     1
  9
$MAXACTVP
 70
    64
  9
$PINSBASE
 10
0.0
 20
0.0
 30
0.0
  9
$PLIMCHECK
 70
     0
  9
$PEXTMIN
 10
-3.6397346976
 20
-5.7569749942
 30
0.0
  9
$PEXTMAX
 10
3.1099983255
 20
3.9319552088
 30
0.0
  9
$PLIMMIN
 10
-3.9425142581
 20
-6.0597540779
  9
$PLIMMAX
 10
9.3797654267
 20
4.2347347694
  9
$UNITMODE
 70
     0
  9
$VISRETAIN
 70
     1
  9
$PLINEGEN
 70
     0
  9
$PSLTSCALE
 70
     1
  9
$TREEDEPTH
 70
  3020
  9
$CMLSTYLE
  2
Standard
  9
$CMLJUST
 70
     0
  9
$CMLSCALE
 40
1.0
  9
$PROXYGRAPHICS
 70
     1
  9
$MEASUREMENT
 70
     0
  9
$CELWEIGHT
370
    -1
  9
$ENDCAPS
280
     0
  9
$JOINSTYLE
280
     0
  9
$LWDISPLAY
290
     1
  9
$INSUNITS
 70
     1
  9
$HYPERLINKBASE
  1

  9
$STYLESHEET
  1

  9
$XEDIT
290
     1
  9
$CEPSNTYPE
380
     0
  9
$PSTYLEMODE
290
     1
  9
$FINGERPRINTGUID
  2
{AAF48760-16D9-4AE4-ACD4-0E88FE38FFF7}
  9
$VERSIONGUID
  2
{FAEB1C32-E019-11D5-929B-00C0DF256EC4}
  9
$EXTNAMES
290
     1
  9
$PSVPSCALE
 40
0.0
  9
$OLESTARTUP
290
     0
  0
ENDSEC
  0
SECTION
  2
CLASSES
  0
CLASS
  1
ACDBDICTIONARYWDFLT
  2
AcDbDictionaryWithDefault
  3
ObjectDBX Classes
 90
        0
280
     0
281
     0
  0
CLASS
  1
VISUALSTYLE
  2
AcDbVisualStyle
  3
ObjectDBX Classes
 90
     4095
280
     0
281
     0
  0
CLASS
  1
MATERIAL
  2
AcDbMaterial
  3
ObjectDBX Classes
 90
     1153
280
     0
281
     0
  0
CLASS
  1
SCALE
  2
AcDbScale
  3
ObjectDBX Classes
 90
     1153
280
     0
281
     0
  0
CLASS
  1
SUN
  2
AcDbSun
  3
SCENEOE
 90
     1153
280
     0
281
     0
  0
CLASS
  1
ACDBPLACEHOLDER
  2
AcDbPlaceHolder
  3
ObjectDBX Classes
 90
        0
280
     0
281
     0
  0
CLASS
  1
LAYOUT
  2
AcDbLayout
  3
ObjectDBX Classes
 90
        0
280
     0
281
     0
  0
ENDSEC
  0
SECTION
  2
TABLES
  0
TABLE
  2
VPORT
  5
8
330
0
100
AcDbSymbolTable
 70
     1
  0
VPORT
  5
29
330
8
100
AcDbSymbolTableRecord
100
AcDbViewportTableRecord
  2
*Active
 70
     0
 10
0.0
 20
0.0
 11
1.0
 21
1.0
 12
-0.0623621654
 22
-1.6244328025
 13
0.0
 23
0.0
 14
0.5
 24
0.5
 15
0.5
 25
0.5
 16
0.0
 26
0.0
 36
1.0
 17
0.0
 27
0.0
 37
0.0
 40
8.6720406159
 41
1.0491648296
 42
50.0
 43
0.0
 44
0.0
 50
0.0
 51
0.0
 71
     0
 72
   100
 73
     1
 74
     3
 75
     0
 76
     0
 77
     0
 78
     0
281
     0
 65
     1
110
0.0
120
0.0
130
0.0
111
1.0
121
0.0
131
0.0
112
0.0
122
1.0
132
0.0
 79
     0
146
0.0
  0
ENDTAB
  0
TABLE
  2
LTYPE
  5
5
330
0
100
AcDbSymbolTable
 70
     6
  0
LTYPE
  5
14
330
5
100
AcDbSymbolTableRecord
100
AcDbLinetypeTableRecord
  2
ByBlock
 70
     0
  3

 72
    65
 73
     0
 40
0.0
  0
LTYPE
  5
15
330
5
100
AcDbSymbolTableRecord
100
AcDbLinetypeTableRecord
  2
ByLayer
 70
     0
  3

 72
    65
 73
     0
 40
0.0
  0
LTYPE
  5
16
330
5
100
AcDbSymbolTableRecord
100
AcDbLinetypeTableRecord
  2
Continuous
 70
     0
  3
Solid line
 72
    65
 73
     0
 40
0.0
  0
LTYPE
  5
6A
330
5
100
AcDbSymbolTableRecord
100
AcDbLinetypeTableRecord
  2
HIDDEN
 70
     0
  3
Hidden __ __ __ __ __ __ __ __ __ __ __ __ __ __
 72
    65
 73
     2
 40
0.075
 49
0.05
 74
     0
 49
-0.025
 74
     0
  0
LTYPE
  5
6B
330
5
100
AcDbSymbolTableRecord
100
AcDbLinetypeTableRecord
  2
PHANTOM
 70
     0
  3
Phantom ______  __  __  ______  __  __  ______
 72
    65
 73
     6
 40
0.5
 49
0.25
 74
     0
 49
-0.05
 74
     0
 49
0.05
 74
     0
 49
-0.05
 74
     0
 49
0.05
 74
     0
 49
-0.05
 74
     0
  0
LTYPE
  5
6C
330
5
100
AcDbSymbolTableRecord
100
AcDbLinetypeTableRecord
  2
CENTER
 70
     0
  3
Center ____ _ ____ _ ____ _ ____ _ ____ _ ____
 72
    65
 73
     4
 40
0.4
 49
0.25
 74
     0
 49
-0.05
 74
     0
 49
0.05
 74
     0
 49
-0.05
 74
     0
  0
LTYPE
  5
6D
330
5
100
AcDbSymbolTableRecord
100
AcDbLinetypeTableRecord
  2
CENTERX2
 70
     0
  3
Center (2x) ________  __  ________  __  _____
 72
    65
 73
     4
 40
0.8
 49
0.5
 74
     0
 49
-0.1
 74
     0
 49
0.1
 74
     0
 49
-0.1
 74
     0
  0
LTYPE
  5
6E
330
5
100
AcDbSymbolTableRecord
100
AcDbLinetypeTableRecord
  2
DOT2
 70
     0
  3
Dot (.5x) ........................................
 72
    65
 73
     2
 40
0.025
 49
0.0
 74
     0
 49
-0.025
 74
     0
  0
ENDTAB
  0
TABLE
  2
LAYER
  5
2
330
0
100
AcDbSymbolTable
 70
     1
  0
LAYER
  5
10
330
2
100
AcDbSymbolTableRecord
100
AcDbLayerTableRecord
  2
0
 70
     0
 62
     7
  6
Continuous
370
    -3
390
F
  0
ENDTAB
  0
TABLE
  2
STYLE
  5
3
330
0
100
AcDbSymbolTable
 70
     1
  0
STYLE
  5
11
330
3
100
AcDbSymbolTableRecord
100
AcDbTextStyleTableRecord
  2
Standard
 70
     0
 40
0.0
 41
1.0
 50
0.0
 71
     0
 42
0.1377952756
  3
txt
  4

  0
ENDTAB
  0
TABLE
  2
VIEW
  5
6
330
0
100
AcDbSymbolTable
 70
     0
  0
ENDTAB
  0
TABLE
  2
UCS
  5
7
330
0
100
AcDbSymbolTable
 70
     0
  0
ENDTAB
  0
TABLE
  2
APPID
  5
9
330
0
100
AcDbSymbolTable
 70
     1
  0
APPID
  5
12
330
9
100
AcDbSymbolTableRecord
100
AcDbRegAppTableRecord
  2
ACAD
 70
     0
  0
ENDTAB
  0
TABLE
  2
DIMSTYLE
  5
A
330
0
100
AcDbSymbolTable
 70
     1
100
AcDbDimStyleTable
  0
DIMSTYLE
105
27
330
A
100
AcDbSymbolTableRecord
100
AcDbDimStyleTableRecord
  2
Standard
 70
     0
178
     0
340
11
  0
ENDTAB
  0
TABLE
  2
BLOCK_RECORD
  5
1
330
0
100
AcDbSymbolTable
 70
     1
  0
BLOCK_RECORD
  5
1F
330
1
100
AcDbSymbolTableRecord
100
AcDbBlockTableRecord
  2
*Model_Space
340
22
  0
BLOCK_RECORD
  5
1B
330
1
100
AcDbSymbolTableRecord
100
AcDbBlockTableRecord
  2
*Paper_Space
340
1E
  0
BLOCK_RECORD
  5
23
330
1
100
AcDbSymbolTableRecord
100
AcDbBlockTableRecord
  2
*Paper_Space0
340
26
  0
ENDTAB
  0
ENDSEC
  0
SECTION
  2
BLOCKS
  0
BLOCK
  5
20
330
1F
100
AcDbEntity
  8
0
100
AcDbBlockBegin
  2
*Model_Space
 70
     0
 10
0.0
 20
0.0
 30
0.0
  3
*Model_Space
  1
*Model_Space
  0
ENDBLK
  5
21
330
1F
100
AcDbEntity
  8
0
100
AcDbBlockEnd
  0
BLOCK
  5
1C
330
1B
100
AcDbEntity
 67
     1
  8
0
100
AcDbBlockBegin
  2
*Paper_Space
 70
     0
 10
0.0
 20
0.0
 30
0.0
  3
*Paper_Space
  1
*Paper_Space
  0
ENDBLK
  5
1D
330
1B
100
AcDbEntity
 67
     1
  8
0
100
AcDbBlockEnd
  0
BLOCK
  5
24
330
23
100
AcDbEntity
  8
0
100
AcDbBlockBegin
  2
*Paper_Space0
 70
     0
 10
0.0
 20
0.0
 30
0.0
  3
*Paper_Space0
  1
*Paper_Space0
  0
ENDBLK
  5
25
330
23
100
AcDbEntity
  8
0
100
AcDbBlockEnd
  0
ENDSEC
  0
SECTION
  2
ENTITIES
  0
CIRCLE
  5
6F
330
1F
100
AcDbEntity
  8
0
  6
Continuous
 62
     7
370
    15
100
AcDbCircle
 10
3.8976377953
 20
1.4645669291
 30
0.0
 40
0.2560005430927985
  0
CIRCLE
  5
70
330
1F
100
AcDbEntity
  8
0
  6
Continuous
 62
     7
370
    15
100
AcDbCircle
 10
-3.5723545425
 20
-4.805426292
 30
0.0
 40
0.2559901630229424
  0
CIRCLE
  5
84
330
1F
100
AcDbEntity
  8
0
  6
Continuous
 62
     7
370
    15
100
AcDbCircle
 10
2.7476318133
 20
-4.805428181
 30
0.0
 40
0.2560074044988019
  0
CIRCLE
  5
85
330
1F
100
AcDbEntity
  8
0
  6
Continuous
 62
     7
370
    15
100
AcDbCircle
 10
-4.0223643409
 20
1.4645673115
 30
0.0
 40
0.2560001879266136
  0
CIRCLE
  5
86
330
1F
100
AcDbEntity
  8
0
  6
Continuous
 62
     7
370
    15
100
AcDbCircle
 10
0.0
 20
0.0
 30
0.0
 40
2.401574803149605
  0
LINE
  5
87
330
1F
100
AcDbEntity
  8
0
  6
Continuous
 62
     7
370
    15
100
AcDbLine
 10
-4.0723621714
 20
-1.4252115647
 30
0.0
 11
-4.0723628257
 21
-4.8054325102
 31
0.0
  0
LINE
  5
88
330
1F
100
AcDbEntity
  8
0
  6
Continuous
 62
     7
370
    15
100
AcDbLine
 10
-4.5160724922
 20
1.3855097826
 30
0.0
 11
-4.0786518548
 21
-1.3461538348
 31
0.0
  0
LINE
  5
89
330
1F
100
AcDbEntity
  8
0
  6
Continuous
 62
     7
370
    15
100
AcDbLine
 10
-4.5223621727
 20
2.5545675088
 30
0.0
 11
-4.5223621727
 21
1.4645674995
 31
0.0
  0
LINE
  5
8A
330
1F
100
AcDbEntity
  8
0
  6
Continuous
 62
     7
370
    15
100
AcDbLine
 10
-3.2823621727
 20
2.5545675088
 30
0.0
 11
-4.5223621727
 21
2.5545675088
 31
0.0
  0
LINE
  5
8B
330
1F
100
AcDbEntity
  8
0
  6
Continuous
 62
     7
370
    15
100
AcDbLine
 10
-3.2823621727
 20
2.6265674995
 30
0.0
 11
-3.2823621727
 21
2.5545675088
 31
0.0
  0
LINE
  5
8C
330
1F
100
AcDbEntity
  8
0
  6
Continuous
 62
     7
370
    15
100
AcDbLine
 10
3.1076378273
 20
2.6265674995
 30
0.0
 11
-3.2823621727
 21
2.6265674995
 31
0.0
  0
LINE
  5
8D
330
1F
100
AcDbEntity
  8
0
  6
Continuous
 62
     7
370
    15
100
AcDbLine
 10
3.1076378273
 20
2.5545675088
 30
0.0
 11
3.1076378273
 21
2.6265674995
 31
0.0
  0
LINE
  5
8E
330
1F
100
AcDbEntity
  8
0
  6
Continuous
 62
     7
370
    15
100
AcDbLine
 10
4.0091304623
 20
2.5545675088
 30
0.0
 11
3.1076378273
 21
2.5545675088
 31
0.0
  0
LINE
  5
8F
330
1F
100
AcDbEntity
  8
0
  6
Continuous
 62
     7
370
    15
100
AcDbLine
 10
4.3634498281
 20
1.6462787799
 30
0.0
 11
4.0091304623
 21
2.5545675088
 31
0.0
  0
LINE
  5
90
330
1F
100
AcDbEntity
  8
0
  6
Continuous
 62
     7
370
    15
100
AcDbLine
 10
3.286356607
 20
-1.2928554547
 30
0.0
 11
4.3589186102
 21
1.2716419272
 31
0.0
  0
LINE
  5
91
330
1F
100
AcDbEntity
  8
0
  6
Continuous
 62
     7
370
    15
100
AcDbLine
 10
3.2476377904
 20
-4.8054352887
 30
0.0
 11
3.2476377904
 21
-1.4857797491
 31
0.0
  0
LINE
  5
92
330
1F
100
AcDbEntity
  8
0
  6
Continuous
 62
     7
370
    15
100
AcDbLine
 10
-0.0123623919
 20
-5.8754331044
 30
0.0
 11
2.8470326248
 21
-5.2954541557
 31
0.0
  0
LINE
  5
93
330
1F
100
AcDbEntity
  8
0
  6
Continuous
 62
     7
370
    15
100
AcDbLine
 10
-3.6505708602
 20
-5.2992789937
 30
0.0
 11
-0.0123623919
 21
-5.8754331044
 31
0.0
  0
ARC
  5
94
330
1F
100
AcDbEntity
  8
0
  6
Continuous
 62
     7
370
    15
100
AcDbCircle
 10
-3.5723545425
 20
-4.805426292
 30
0.0
 40
0.5000082832630377
100
AcDbArc
 50
180.0007125445
 51
261.000256469
  0
ARC
  5
95
330
1F
100
AcDbEntity
  8
0
  6
Continuous
 62
     7
370
    15
100
AcDbCircle
 10
-4.5723637247
 20
-1.4252116793
 30
0.0
 40
0.5000015532748251
100
AcDbArc
 50
0.0000131413
 51
9.0975124634
  0
ARC
  5
96
330
1F
100
AcDbEntity
  8
0
  6
Continuous
 62
     7
370
    15
100
AcDbCircle
 10
-4.0223644024
 20
1.4645673087
 30
0.0
 40
0.4999977702775686
100
AcDbArc
 50
179.9999781356
 51
189.0975449219
  0
ARC
  5
97
330
1F
100
AcDbEntity
  8
0
  6
Continuous
 62
     7
370
    15
100
AcDbCircle
 10
3.8976377953
 20
1.4645669291
 30
0.0
 40
0.5000000466249849
100
AcDbArc
 50
337.3034825548
 51
21.3106046726
  0
ARC
  5
98
330
1F
100
AcDbEntity
  8
0
  6
Continuous
 62
     7
370
    15
100
AcDbCircle
 10
3.7476519993
 20
-1.4857823064
 30
0.0
 40
0.5000142088240218
100
AcDbArc
 50
157.3039315319
 51
179.9997069614
  0
ARC
  5
99
330
1F
100
AcDbEntity
  8
0
  6
Continuous
 62
     7
370
    15
100
AcDbCircle
 10
2.7476318133
 20
-4.805428181
 30
0.0
 40
0.5000059771705188
100
AcDbArc
 50
281.4667510172
 51
359.9991855226
  0
LWPOLYLINE
  5
9B
330
1B
100
AcDbEntity
 67
     1
  8
0
  6
Continuous
 62
     7
370
    15
100
AcDbPolyline
 90
       35
 70
   128
 43
0.0
 10
2.4951240974
 20
-0.7547808821
 10
2.4920418927
 20
-0.7145915027
 10
2.4829002393
 20
-0.6722120866
 10
2.4680104453
 20
-0.6290858139
 10
2.4478795647
 20
-0.5866812982
 10
2.4231931306
 20
-0.5464425744
 10
2.3947918098
 20
-0.509739924
 10
2.3636427752
 20
-0.4778232117
 10
2.33080677
 20
-0.4517793228
 10
2.2974019848
 20
-0.4324951508
 10
2.2645659796
 20
-0.420627395
 10
2.233416945
 20
-0.4165801975
 10
2.2050156243
 20
-0.420491381
 10
2.1803291901
 20
-0.4322277546
 10
2.1601983096
 20
-0.4513896503
 10
2.1453085155
 20
-0.4773245327
 10
2.1361668621
 20
-0.5091492205
 10
2.1330846574
 20
-0.5457799621
 10
2.1361668621
 20
-0.5859693415
 10
2.1453085155
 20
-0.6283487576
 10
2.1601983096
 20
-0.6714750302
 10
2.1803291901
 20
-0.7138795459
 10
2.2050156243
 20
-0.7541182697
 10
2.233416945
 20
-0.7908209202
 10
2.2645659796
 20
-0.8227376325
 10
2.2974019848
 20
-0.8487815214
 10
2.33080677
 20
-0.8680656934
 10
2.3636427752
 20
-0.8799334492
 10
2.3947918098
 20
-0.8839806466
 10
2.4231931306
 20
-0.8800694632
 10
2.4478795647
 20
-0.8683330895
 10
2.4680104453
 20
-0.8491711938
 10
2.4829002393
 20
-0.8232363114
 10
2.4920418927
 20
-0.7914116236
 10
2.4951240974
 20
-0.7547808821
  0
LWPOLYLINE
  5
9C
330
1B
100
AcDbEntity
 67
     1
  8
0
  6
Continuous
 62
     7
370
    15
100
AcDbPolyline
 90
       35
 70
   128
 43
0.0
 10
-2.7869654799
 20
-2.8252008303
 10
-2.7900475596
 20
-2.7850130804
 10
-2.7991888424
 20
-2.7426353827
 10
-2.8140780326
 20
-2.6995108587
 10
-2.834208097
 20
-2.6571080624
 10
-2.8588935301
 20
-2.6168709701
 10
-2.8872936993
 20
-2.5801698079
 10
-2.9184414709
 20
-2.5482543896
 10
-2.9512761447
 20
-2.5222115568
 10
-2.9846795754
 20
-2.5029281667
 10
-3.0175142493
 20
-2.4910608921
 10
-3.0486620208
 20
-2.4870138588
 10
-3.07706219
 20
-2.4909248836
 10
-3.1017476232
 20
-2.5026607814
 10
-3.1218776875
 20
-2.5218219001
 10
-3.1367668778
 20
-2.547755731
 10
-3.1459081605
 20
-2.5795791283
 10
-3.1489902403
 20
-2.6162083846
 10
-3.1459081605
 20
-2.6563961345
 10
-3.1367668778
 20
-2.6987738322
 10
-3.1218776875
 20
-2.7418983562
 10
-3.1017476232
 20
-2.7843011525
 10
-3.07706219
 20
-2.8245382448
 10
-3.0486620208
 20
-2.861239407
 10
-3.0175142493
 20
-2.8931548252
 10
-2.9846795754
 20
-2.9191976581
 10
-2.9512761447
 20
-2.9384810482
 10
-2.9184414709
 20
-2.9503483228
 10
-2.8872936993
 20
-2.9543953561
 10
-2.8588935301
 20
-2.9504843312
 10
-2.834208097
 20
-2.9387484335
 10
-2.8140780326
 20
-2.9195873147
 10
-2.7991888424
 20
-2.8936534839
 10
-2.7900475596
 20
-2.8618300866
 10
-2.7869654799
 20
-2.8252008303
  0
LWPOLYLINE
  5
AD
330
1B
100
AcDbEntity
 67
     1
  8
0
  6
Continuous
 62
     7
370
    15
100
AcDbPolyline
 90
       11
 70
   128
 43
0.0
 10
1.571214337
 20
-5.7412522353
 10
1.61789967
 20
-5.7533603874
 10
1.6623909054
 20
-5.7569749942
 10
1.703853503
 20
-5.752028255
 10
1.7415097318
 20
-5.7386129578
 10
1.7746532586
 20
-5.7169807388
 10
1.8026623968
 20
-5.6875373624
 10
1.8250117675
 20
-5.6508351101
 10
1.8412821544
 20
-5.6075624209
 10
1.8511683672
 20
-5.5585309783
 10
1.8544849662
 20
-5.5046604852
  0
LWPOLYLINE
  5
B0
330
1B
100
AcDbEntity
 67
     1
  8
0
  6
Continuous
 62
     7
370
    15
100
AcDbPolyline
 90
       35
 70
   128
 43
0.0
 10
1.6819519209
 20
-5.4050534745
 10
1.6788696336
 20
-5.3648630179
 10
1.6697277352
 20
-5.3224824659
 10
1.6548375421
 20
-5.2793550374
 10
1.6347061219
 20
-5.2369493852
 10
1.6100190261
 20
-5.1967095829
 10
1.5816169441
 20
-5.1600059487
 10
1.5504670747
 20
-5.128088381
 10
1.5176301894
 20
-5.102043794
 10
1.4842245089
 20
-5.0827591052
 10
1.4513876236
 20
-5.0708910313
 10
1.4202377542
 20
-5.0668437254
 10
1.3918356722
 20
-5.0707550137
 10
1.3671485764
 20
-5.0824917019
 10
1.3470171563
 20
-5.1016541112
 10
1.3321269632
 20
-5.1275896887
 10
1.3229850647
 20
-5.1594152294
 10
1.3199027774
 20
-5.1960469528
 10
1.3229850647
 20
-5.2362374093
 10
1.3321269632
 20
-5.2786179613
 10
1.3470171563
 20
-5.3217453899
 10
1.3671485764
 20
-5.3641510421
 10
1.3918356722
 20
-5.4043908444
 10
1.4202377542
 20
-5.4410944785
 10
1.4513876236
 20
-5.4730120463
 10
1.4842245089
 20
-5.4990566332
 10
1.5176301894
 20
-5.5183413221
 10
1.5504670747
 20
-5.530209396
 10
1.5816169441
 20
-5.5342567019
 10
1.6100190261
 20
-5.5303454136
 10
1.6347061219
 20
-5.5186087254
 10
1.6548375421
 20
-5.4994463161
 10
1.6697277352
 20
-5.4735107386
 10
1.6788696336
 20
-5.4416851979
 10
1.6819519209
 20
-5.4050534745
  0
LWPOLYLINE
  5
B1
330
1B
100
AcDbEntity
 67
     1
  8
0
  6
Continuous
 62
     7
370
    15
100
AcDbPolyline
 90
       35
 70
   128
 43
0.0
 10
-3.1051633713
 20
2.47819657
 10
-3.1082455717
 20
2.5183858936
 10
-3.1173872124
 20
2.5607652509
 10
-3.1322769858
 20
2.6038914638
 10
-3.1524078384
 20
2.6462959206
 10
-3.1770942383
 20
2.6865345886
 10
-3.2054955197
 20
2.7232371881
 10
-3.236644511
 20
2.7551538562
 10
-3.2694804707
 20
2.7811977089
 10
-3.3028852096
 20
2.8004818542
 10
-3.3357211692
 20
2.8123495935
 10
-3.3668701605
 20
2.8163967853
 10
-3.3952714419
 20
2.8124856073
 10
-3.4199578418
 20
2.8007492499
 10
-3.4400886945
 20
2.7815873808
 10
-3.4549784678
 20
2.7556525344
 10
-3.4641201085
 20
2.7238278908
 10
-3.467202309
 20
2.6871972
 10
-3.4641201085
 20
2.6470078764
 10
-3.4549784678
 20
2.6046285191
 10
-3.4400886945
 20
2.5615023063
 10
-3.4199578418
 20
2.5190978494
 10
-3.3952714419
 20
2.4788591814
 10
-3.3668701605
 20
2.4421565819
 10
-3.3357211692
 20
2.4102399139
 10
-3.3028852096
 20
2.3841960611
 10
-3.2694804707
 20
2.3649119158
 10
-3.236644511
 20
2.3530441765
 10
-3.2054955197
 20
2.3489969847
 10
-3.1770942383
 20
2.3529081627
 10
-3.1524078384
 20
2.3646445201
 10
-3.1322769858
 20
2.3838063892
 10
-3.1173872124
 20
2.4097412356
 10
-3.1082455717
 20
2.4415658792
 10
-3.1051633713
 20
2.47819657
  0
LWPOLYLINE
  5
B2
330
1B
100
AcDbEntity
 67
     1
  8
0
  6
Continuous
 62
     7
370
    15
100
AcDbPolyline
 90
      107
 70
   128
 43
0.0
 10
-2.1401115671
 20
0.7252050403
 10
-2.1371291253
 20
0.8396532273
 10
-2.1281922761
 20
0.9502559569
 10
-2.1133324103
 20
1.056624733
 10
-2.0926017239
 20
1.1583859315
 10
-2.066073034
 20
1.2551821124
 10
-2.0338395237
 20
1.3466732755
 10
-1.9960144144
 20
1.4325380549
 10
-1.9527305682
 20
1.5124748473
 10
-1.9041400211
 20
1.5862028719
 10
-1.8504134491
 20
1.6534631563
 10
-1.791739569
 20
1.7140194463
 10
-1.7283244747
 20
1.7676590357
 10
-1.6603909141
 20
1.8141935135
 10
-1.5881775064
 20
1.8534594257
 10
-1.5119379037
 20
1.8853188492
 10
-1.4319399005
 20
1.9096598767
 10
-1.3484644926
 20
1.9263970096
 10
-1.2618048905
 20
1.9354714578
 10
-1.1722654892
 20
1.9368513473
 10
-1.080160799
 20
1.9305318309
 10
-0.9858143412
 20
1.9165351064
 10
-0.8895575109
 20
1.8949103376
 10
-0.791728414
 20
1.8657334823
 10
-0.6926706786
 20
1.8291070254
 10
-0.5927322486
 20
1.7851596186
 10
-0.4922641615
 20
1.7340456287
 10
-0.391619315
 20
1.6759445955
 10
-0.2911512279
 20
1.6110606011
 10
-0.1912127979
 20
1.5396215528
 10
-0.0921550625
 20
1.4618783828
 10
0.0056740344
 20
1.3781041669
 10
0.1019308647
 20
1.2885931652
 10
0.1962773225
 20
1.1936597881
 10
0.2883820127
 20
1.0936374928
 10
0.377921414
 20
0.988877611
 10
0.4645810161
 20
0.8797481159
 10
0.548056424
 20
0.7666323286
 10
0.6280544272
 20
0.6499275726
 10
0.7042940299
 20
0.5300437774
 10
0.7765074376
 20
0.4074020394
 10
0.8444409982
 20
0.2824331422
 10
0.9078560925
 20
0.1555760434
 10
0.9665299727
 20
0.0272763333
 10
1.0202565446
 20
-0.1020153307
 10
1.0688470917
 20
-0.2318448068
 10
1.112130938
 20
-0.3617560644
 10
1.1499560473
 20
-0.4912927854
 10
1.1821895575
 20
-0.6199999673
 10
1.2087182474
 20
-0.7474255216
 10
1.2294489338
 20
-0.8731218611
 10
1.2443087996
 20
-0.9966474731
 10
1.2532456489
 20
-1.1175684693
 10
1.2562280906
 20
-1.2354601102
 10
1.2532456489
 20
-1.3499082971
 10
1.2443087996
 20
-1.4605110268
 10
1.2294489338
 20
-1.5668798029
 10
1.2087182474
 20
-1.6686410014
 10
1.1821895575
 20
-1.7654371823
 10
1.1499560473
 20
-1.8569283454
 10
1.112130938
 20
-1.9427931248
 10
1.0688470917
 20
-2.0227299172
 10
1.0202565446
 20
-2.0964579418
 10
0.9665299727
 20
-2.1637182262
 10
0.9078560925
 20
-2.2242745162
 10
0.8444409982
 20
-2.2779141056
 10
0.7765074376
 20
-2.3244485834
 10
0.7042940299
 20
-2.3637144955
 10
0.6280544272
 20
-2.3955739191
 10
0.548056424
 20
-2.4199149466
 10
0.4645810161
 20
-2.4366520794
 10
0.377921414
 20
-2.4457265277
 10
0.2883820127
 20
-2.4471064172
 10
0.1962773225
 20
-2.4407869008
 10
0.1019308647
 20
-2.4267901763
 10
0.0056740344
 20
-2.4051654074
 10
-0.0921550625
 20
-2.3759885522
 10
-0.1912127979
 20
-2.3393620953
 10
-0.2911512279
 20
-2.2954146884
 10
-0.391619315
 20
-2.2443006986
 10
-0.4922641615
 20
-2.1861996654
 10
-0.5927322486
 20
-2.121315671
 10
-0.6926706786
 20
-2.0498766227
 10
-0.791728414
 20
-1.9721334527
 10
-0.8895575109
 20
-1.8883592368
 10
-0.9858143412
 20
-1.798848235
 10
-1.080160799
 20
-1.703914858
 10
-1.1722654892
 20
-1.6038925626
 10
-1.2618048905
 20
-1.4991326809
 10
-1.3484644926
 20
-1.3900031858
 10
-1.4319399005
 20
-1.2768873985
 10
-1.5119379037
 20
-1.1601826425
 10
-1.5881775064
 20
-1.0402988473
 10
-1.6603909141
 20
-0.9176571093
 10
-1.7283244747
 20
-0.792688212
 10
-1.791739569
 20
-0.6658311133
 10
-1.8504134491
 20
-0.5375314032
 10
-1.9041400211
 20
-0.4082397392
 10
-1.9527305682
 20
-0.2784102631
 10
-1.9960144144
 20
-0.1484990055
 10
-2.0338395237
 20
-0.0189622845
 10
-2.066073034
 20
0.1097448975
 10
-2.0926017239
 20
0.2371704517
 10
-2.1133324103
 20
0.3628667913
 10
-2.1281922761
 20
0.4863924032
 10
-2.1371291253
 20
0.6073133994
 10
-2.1401115671
 20
0.7252050403
  0
LWPOLYLINE
  5
C0
330
1B
100
AcDbEntity
 67
     1
  8
0
  6
Continuous
 62
     7
370
    15
100
AcDbPolyline
 90
       12
 70
   128
 43
0.0
 10
-1.6981698288
 20
0.9803325752
 10
-1.6951873871
 20
1.0947807622
 10
-1.6862505379
 20
1.2053834918
 10
-1.6713906721
 20
1.311752268
 10
-1.6506599856
 20
1.4135134665
 10
-1.6241312958
 20
1.5103096473
 10
-1.5918977855
 20
1.6018008105
 10
-1.5540726762
 20
1.6876655898
 10
-1.5107888299
 20
1.7676023823
 10
-1.4621982828
 20
1.8413304069
 10
-1.4084717109
 20
1.9085906913
 10
-1.4011588967
 20
1.9168033701
  0
LWPOLYLINE
  5
C1
330
1B
100
AcDbEntity
 67
     1
  8
0
  6
Continuous
 62
     7
370
    15
100
AcDbPolyline
 90
       38
 70
   128
 43
0.0
 10
0.9592171584
 20
-2.1719309051
 10
0.9065227544
 20
-2.1815245445
 10
0.8198631523
 20
-2.1905989928
 10
0.7303237509
 20
-2.1919788822
 10
0.6382190608
 20
-2.1856593659
 10
0.5438726029
 20
-2.1716626413
 10
0.4476157727
 20
-2.1500378725
 10
0.3497866757
 20
-2.1208610173
 10
0.2507289403
 20
-2.0842345603
 10
0.1507905104
 20
-2.0402871535
 10
0.0503224232
 20
-1.9891731636
 10
-0.0503224232
 20
-1.9310721305
 10
-0.1507905104
 20
-1.866188136
 10
-0.2507289403
 20
-1.7947490877
 10
-0.3497866757
 20
-1.7170059178
 10
-0.4476157727
 20
-1.6332317019
 10
-0.5438726029
 20
-1.5437207001
 10
-0.6382190608
 20
-1.4487873231
 10
-0.7303237509
 20
-1.3487650277
 10
-0.8198631523
 20
-1.244005146
 10
-0.9065227544
 20
-1.1348756508
 10
-0.9899981623
 20
-1.0217598636
 10
-1.0699961655
 20
-0.9050551075
 10
-1.1462357682
 20
-0.7851713124
 10
-1.2184491759
 20
-0.6625295744
 10
-1.2863827364
 20
-0.5375606771
 10
-1.3497978307
 20
-0.4107035783
 10
-1.4084717109
 20
-0.2824038682
 10
-1.4621982828
 20
-0.1531122043
 10
-1.5107888299
 20
-0.0232827281
 10
-1.5540726762
 20
0.1066285295
 10
-1.5918977855
 20
0.2361652505
 10
-1.6241312958
 20
0.3648724324
 10
-1.6506599856
 20
0.4922979866
 10
-1.6713906721
 20
0.6179943262
 10
-1.6862505379
 20
0.7415199382
 10
-1.6951873871
 20
0.8624409343
 10
-1.6981698288
 20
0.9803325752
  0
LINE
  5
C9
330
1B
100
AcDbEntity
 67
     1
  8
0
  6
Continuous
 62
     7
370
    15
100
AcDbLine
 10
1.7509100207
 20
-5.7335798213
 30
0.0
 11
2.1928517589
 21
-5.4784522864
 31
0.0
  0
LINE
  5
CA
330
1B
100
AcDbEntity
 67
     1
  8
0
  6
Continuous
 62
     7
370
    15
100
AcDbLine
 10
-3.3215366451
 20
0.2434838125
 30
0.0
 11
-3.3215371078
 21
-2.5166042757
 31
0.0
  0
LINE
  5
CB
330
1B
100
AcDbEntity
 67
     1
  8
0
  6
Continuous
 62
     7
370
    15
100
AcDbLine
 10
-3.6352872218
 20
2.7196768559
 30
0.0
 11
-3.3259841229
 21
0.3106051496
 31
0.0
  0
LINE
  5
CC
330
1B
100
AcDbEntity
 67
     1
  8
0
  6
Continuous
 62
     7
370
    15
100
AcDbLine
 10
-3.6397346976
 20
3.6768276739
 30
0.0
 11
-3.6397346976
 21
2.7867981813
 31
0.0
  0
LINE
  5
CD
330
1B
100
AcDbEntity
 67
     1
  8
0
  6
Continuous
 62
     7
370
    15
100
AcDbLine
 10
-2.7629222889
 20
3.1706546446
 30
0.0
 11
-3.6397346976
 21
3.6768276739
 31
0.0
  0
LINE
  5
CE
330
1B
100
AcDbEntity
 67
     1
  8
0
  6
Continuous
 62
     7
370
    15
100
AcDbLine
 10
-2.7629222889
 20
3.2294455754
 30
0.0
 11
-2.7629222889
 21
3.1706546446
 31
0.0
  0
LINE
  5
CF
330
1B
100
AcDbEntity
 67
     1
  8
0
  6
Continuous
 62
     7
370
    15
100
AcDbLine
 10
1.7554900429
 20
0.6210216581
 30
0.0
 11
-2.7629222889
 21
3.2294455754
 31
0.0
  0
LINE
  5
D0
330
1B
100
AcDbEntity
 67
     1
  8
0
  6
Continuous
 62
     7
370
    15
100
AcDbLine
 10
1.7554900429
 20
0.5622307273
 30
0.0
 11
1.7554900429
 21
0.6210216581
 31
0.0
  0
LINE
  5
D1
330
1B
100
AcDbEntity
 67
     1
  8
0
  6
Continuous
 62
     7
370
    15
100
AcDbLine
 10
2.3929415983
 20
0.1942377773
 30
0.0
 11
1.7554900429
 21
0.5622307273
 31
0.0
  0
LINE
  5
D2
330
1B
100
AcDbEntity
 67
     1
  8
0
  6
Continuous
 62
     7
370
    15
100
AcDbLine
 10
2.6434832246
 20
-0.692051641
 30
0.0
 11
2.3929415983
 21
0.1942377773
 31
0.0
  0
LINE
  5
D3
330
1B
100
AcDbEntity
 67
     1
  8
0
  6
Continuous
 62
     7
370
    15
100
AcDbLine
 10
1.8818633039
 20
-2.6523008737
 30
0.0
 11
2.6402791697
 21
-0.9961082594
 31
0.0
  0
LINE
  5
D4
330
1B
100
AcDbEntity
 67
     1
  8
0
  6
Continuous
 62
     7
370
    15
100
AcDbLine
 10
1.8544849662
 20
-5.5046604852
 30
0.0
 11
1.8544849662
 21
-2.7940262557
 31
0.0
  0
LINE
  5
D5
330
1B
100
AcDbEntity
 67
     1
  8
0
  6
Continuous
 62
     7
370
    15
100
AcDbLine
 10
-0.4506832694
 20
-5.0476120737
 30
0.0
 11
1.571214337
 21
-5.7412522353
 31
0.0
  0
LINE
  5
D6
330
1B
100
AcDbEntity
 67
     1
  8
0
  6
Continuous
 62
     7
370
    15
100
AcDbLine
 10
-3.0232851487
 20
-3.0920272753
 30
0.0
 11
-0.4506832694
 21
-5.0476120737
 31
0.0
  0
LINE
  5
D7
330
1B
100
AcDbEntity
 67
     1
  8
0
  6
Continuous
 62
     7
370
    15
100
AcDbLine
 10
2.6434832246
 20
-0.692051641
 30
0.0
 11
3.0854249628
 21
-0.436924106
 31
0.0
  0
LINE
  5
D8
330
1B
100
AcDbEntity
 67
     1
  8
0
  6
Continuous
 62
     7
370
    15
100
AcDbLine
 10
2.3929415983
 20
0.1942377773
 30
0.0
 11
2.8348833365
 21
0.4493653123
 31
0.0
  0
LINE
  5
D9
330
1B
100
AcDbEntity
 67
     1
  8
0
  6
Continuous
 62
     7
370
    15
100
AcDbLine
 10
3.0854249628
 20
-0.436924106
 30
0.0
 11
2.8348833365
 21
0.4493653123
 31
0.0
  0
LINE
  5
DA
330
1B
100
AcDbEntity
 67
     1
  8
0
  6
Continuous
 62
     7
370
    15
100
AcDbLine
 10
1.7554900429
 20
0.5622307273
 30
0.0
 11
2.1974317811
 21
0.8173582622
 31
0.0
  0
LINE
  5
DB
330
1B
100
AcDbEntity
 67
     1
  8
0
  6
Continuous
 62
     7
370
    15
100
AcDbLine
 10
2.8348833365
 20
0.4493653123
 30
0.0
 11
2.1974317811
 21
0.8173582622
 31
0.0
  0
LINE
  5
DC
330
1B
100
AcDbEntity
 67
     1
  8
0
  6
Continuous
 62
     7
370
    15
100
AcDbLine
 10
2.6402791697
 20
-0.9961082594
 30
0.0
 11
3.0822209079
 21
-0.7409807244
 31
0.0
  0
LINE
  5
DD
330
1B
100
AcDbEntity
 67
     1
  8
0
  6
Continuous
 62
     7
370
    15
100
AcDbLine
 10
1.7554900429
 20
0.6210216581
 30
0.0
 11
2.1974317811
 21
0.8761491931
 31
0.0
  0
LINE
  5
DE
330
1B
100
AcDbEntity
 67
     1
  8
0
  6
Continuous
 62
     7
370
    15
100
AcDbLine
 10
-2.7629222889
 20
3.2294455754
 30
0.0
 11
-2.3209805506
 21
3.4845731104
 31
0.0
  0
LINE
  5
DF
330
1B
100
AcDbEntity
 67
     1
  8
0
  6
Continuous
 62
     7
370
    15
100
AcDbLine
 10
2.1974317811
 20
0.8761491931
 30
0.0
 11
-2.3209805506
 21
3.4845731104
 31
0.0
  0
LINE
  5
E0
330
1B
100
AcDbEntity
 67
     1
  8
0
  6
Continuous
 62
     7
370
    15
100
AcDbLine
 10
2.1974317811
 20
0.8173582622
 30
0.0
 11
2.1974317811
 21
0.8761491931
 31
0.0
  0
LINE
  5
E1
330
1B
100
AcDbEntity
 67
     1
  8
0
  6
Continuous
 62
     7
370
    15
100
AcDbLine
 10
1.8818633039
 20
-2.6523008737
 30
0.0
 11
2.3238050422
 21
-2.3971733388
 31
0.0
  0
LINE
  5
E2
330
1B
100
AcDbEntity
 67
     1
  8
0
  6
Continuous
 62
     7
370
    15
100
AcDbLine
 10
2.3238050422
 20
-2.3971733388
 30
0.0
 11
3.0822209079
 21
-0.7409807244
 31
0.0
  0
LINE
  5
E3
330
1B
100
AcDbEntity
 67
     1
  8
0
  6
Continuous
 62
     7
370
    15
100
AcDbLine
 10
1.8544849662
 20
-2.7940262557
 30
0.0
 11
2.2964267045
 21
-2.5388987208
 31
0.0
  0
LINE
  5
E4
330
1B
100
AcDbEntity
 67
     1
  8
0
  6
Continuous
 62
     7
370
    15
100
AcDbLine
 10
1.8544849662
 20
-5.5046604852
 30
0.0
 11
2.2964267045
 21
-5.2495329503
 31
0.0
  0
LINE
  5
E5
330
1B
100
AcDbEntity
 67
     1
  8
0
  6
Continuous
 62
     7
370
    15
100
AcDbLine
 10
2.2964267045
 20
-5.2495329503
 30
0.0
 11
2.2964267045
 21
-2.5388987208
 31
0.0
  0
LINE
  5
E6
330
1B
100
AcDbEntity
 67
     1
  8
0
  6
Continuous
 62
     7
370
    15
100
AcDbLine
 10
-3.6397346976
 20
3.6768276739
 30
0.0
 11
-3.1977929593
 21
3.9319552088
 31
0.0
  0
LINE
  5
E7
330
1B
100
AcDbEntity
 67
     1
  8
0
  6
Continuous
 62
     7
370
    15
100
AcDbLine
 10
-2.3719005075
 20
3.4551776449
 30
0.0
 11
-3.1977929593
 21
3.9319552088
 31
0.0
  0
ARC
  5
E8
330
1B
100
AcDbEntity
 67
     1
  8
0
  6
Continuous
 62
     7
370
    15
100
AcDbCircle
 10
-2.545754359
 20
-2.4795084438
 30
0.0
 40
0.7766691535070943
100
AcDbArc
 50
182.7376438738
 51
232.059374723
  0
ARC
  5
E9
330
1B
100
AcDbEntity
 67
     1
  8
0
  6
Continuous
 62
     7
370
    15
100
AcDbCircle
 10
-3.8494909724
 20
0.2422094316
 30
0.0
 40
0.5279558653278719
100
AcDbArc
 50
0.1383007904
 51
7.4434837739
  0
ARC
  5
EA
330
1B
100
AcDbEntity
 67
     1
  8
0
  6
Continuous
 62
     7
370
    15
100
AcDbCircle
 10
-3.1117843875
 20
2.7880722925
 30
0.0
 40
0.5279518474820553
100
AcDbArc
 50
180.1382725776
 51
187.4435099426
  0
ARC
  5
EB
330
1B
100
AcDbEntity
 67
     1
  8
0
  6
Continuous
 62
     7
370
    15
100
AcDbCircle
 10
2.2130347892
 20
-0.839560899
 30
0.0
 40
0.4550217980989391
100
AcDbArc
 50
339.8765724418
 51
18.9159417466
  0
ARC
  5
EC
330
1B
100
AcDbEntity
 67
     1
  8
0
  6
Continuous
 62
     7
370
    15
100
AcDbCircle
 10
2.1959586294
 20
-2.7864845766
 30
0.0
 40
0.3415569346139074
100
AcDbArc
 50
156.867490255
 51
181.265210749
  0
ARC
  5
ED
330
1B
100
AcDbEntity
 67
     1
  8
0
  6
Continuous
 62
     7
370
    15
100
AcDbCircle
 10
2.6549765274
 20
-0.5844333641
 30
0.0
 40
0.4550217980989307
100
AcDbArc
 50
339.8765724418
 51
18.9159417466
  0
ARC
  5
EE
330
1B
100
AcDbEntity
 67
     1
  8
0
  6
Continuous
 62
     7
370
    15
100
AcDbCircle
 10
2.6379003677
 20
-2.5313570416
 30
0.0
 40
0.3415569346138927
100
AcDbArc
 50
156.867490255
 51
181.265210749
  0
ARC
  5
EF
330
1B
100
AcDbEntity
 67
     1
  8
0
  6
Continuous
 62
     7
370
    15
100
AcDbCircle
 10
2.0468131877
 20
-5.2744858861
 30
0.0
 40
0.2508576423858392
100
AcDbArc
 50
305.6024088378
 51
5.7086804875
  0
VIEWPORT
  5
F0
330
1B
100
AcDbEntity
 67
     1
  8
0
100
AcDbViewport
 10
0.0
 20
0.0
 30
0.0
 40
8.4
 41
6.4
 68
     1
 69
     1
 12
-0.0623621654
 22
-1.6244328025
 13
0.0
 23
0.0
 14
0.5
 24
0.5
 15
0.5
 25
0.5
 16
0.0
 26
0.0
 36
1.0
 17
0.0
 27
0.0
 37
0.0
 42
50.0
 43
0.0
 44
0.0
 45
8.6720406159
 50
0.0
 51
0.0
 72
   100
 90
   557152
  1

281
     0
 71
     1
 74
     0
110
0.0
120
0.0
130
0.0
111
1.0
121
0.0
131
0.0
112
0.0
122
1.0
132
0.0
 79
     0
146
0.0
  0
ENDSEC
  0
SECTION
  2
OBJECTS
  0
DICTIONARY
  5
C
330
0
100
AcDbDictionary
281
     1
  3
ACAD_GROUP
350
D
  3
ACAD_LAYOUT
350
1A
  3
ACAD_MLINESTYLE
350
17
  3
ACAD_PLOTSETTINGS
350
19
  3
ACAD_PLOTSTYLENAME
350
E
  3
ACAD_SCALELIST
350
47
  0
DICTIONARY
  5
D
102
{ACAD_REACTORS
330
C
102
}
330
C
100
AcDbDictionary
281
     1
  0
DICTIONARY
  5
1A
102
{ACAD_REACTORS
330
C
102
}
330
C
100
AcDbDictionary
281
     1
  3
_Isometric
350
1E
  3
Layout2
350
26
  3
Model
350
22
  0
DICTIONARY
  5
17
102
{ACAD_REACTORS
330
C
102
}
330
C
100
AcDbDictionary
281
     1
  3
Standard
350
18
  0
DICTIONARY
  5
19
102
{ACAD_REACTORS
330
C
102
}
330
C
100
AcDbDictionary
281
     1
  0
ACDBDICTIONARYWDFLT
  5
E
102
{ACAD_REACTORS
330
C
102
}
330
C
100
AcDbDictionary
281
     1
  3
Normal
350
F
100
AcDbDictionaryWithDefault
340
F
  0
DICTIONARY
  5
47
102
{ACAD_REACTORS
330
C
102
}
330
C
100
AcDbDictionary
281
     1
  3
A0
350
48
  3
A1
350
49
  3
A2
350
4A
  3
A3
350
4B
  3
A4
350
4C
  3
A5
350
4D
  3
A6
350
4E
  3
A7
350
4F
  3
A8
350
50
  3
A9
350
51
  3
B0
350
52
  3
B1
350
53
  3
B2
350
54
  3
B3
350
55
  3
B4
350
56
  3
B5
350
57
  3
B6
350
58
  3
B7
350
59
  3
B8
350
5A
  3
B9
350
5B
  3
C0
350
5C
  3
C1
350
5D
  3
C2
350
5E
  3
C3
350
5F
  3
C4
350
60
  3
C5
350
61
  3
C6
350
62
  3
C7
350
63
  3
C8
350
64
  3
C9
350
65
  3
D0
350
66
  3
D1
350
67
  3
D2
350
68
  0
LAYOUT
  5
1E
102
{ACAD_REACTORS
330
1A
102
}
330
1A
100
AcDbPlotSettings
  1

  2
none_device
  4
Letter_(8.50_x_11.00_Inches)
  6

 40
6.35
 41
6.35
 42
6.35001
 43
6.35001
 44
215.9
 45
279.4
 46
0.0
 47
0.0
 48
0.0
 49
0.0
140
0.0
141
0.0
142
1.0
143
1.211116335
 70
   688
 72
     0
 73
     1
 74
     1
  7

 75
     0
147
0.825684512
148
92.4492613179
149
146.2271648521
100
AcDbLayout
  1
_Isometric
 70
     1
 71
     1
 10
-3.9425142581
 20
-6.0597540779
 11
9.3797654267
 21
4.2347347694
 12
0.0
 22
0.0
 32
0.0
 14
-3.6397346976
 24
-5.7569749942
 34
0.0
 15
3.1099983255
 25
3.9319552088
 35
0.0
146
0.0
 13
0.0
 23
0.0
 33
0.0
 16
1.0
 26
0.0
 36
0.0
 17
0.0
 27
1.0
 37
0.0
 76
     0
330
1B
331
F0
  0
LAYOUT
  5
26
102
{ACAD_REACTORS
330
1A
102
}
330
1A
100
AcDbPlotSettings
  1

  2
none_device
  4

  6

 40
0.0
 41
0.0
 42
0.0
 43
0.0
 44
0.0
 45
0.0
 46
0.0
 47
0.0
 48
0.0
 49
0.0
140
0.0
141
0.0
142
1.0
143
1.0
 70
   688
 72
     0
 73
     0
 74
     5
  7

 75
    16
147
1.0
148
0.0
149
0.0
100
AcDbLayout
  1
Layout2
 70
     1
 71
     2
 10
0.0
 20
0.0
 11
0.0
 21
0.0
 12
0.0
 22
0.0
 32
0.0
 14
0.0
 24
0.0
 34
0.0
 15
0.0
 25
0.0
 35
0.0
146
0.0
 13
0.0
 23
0.0
 33
0.0
 16
1.0
 26
0.0
 36
0.0
 17
0.0
 27
1.0
 37
0.0
 76
     0
330
23
  0
LAYOUT
  5
22
102
{ACAD_REACTORS
330
1A
102
}
330
1A
100
AcDbPlotSettings
  1

  2
none_device
  4
ANSI_A_(11.00_x_8.50_Inches)
  6

 40
6.35
 41
19.05
 42
6.35000508
 43
19.05000254
 44
279.4
 45
215.9
 46
134.9177874683
 47
129.7383740503
 48
0.0
 49
0.0
140
0.0
141
0.0
142
0.9897670433
143
1.0
 70
  1696
 72
     0
 73
     0
 74
     0
  7

 75
     0
147
0.5913241897
148
-39.4088153714
149
0.0
100
AcDbLayout
  1
Model
 70
     1
 71
     0
 10
0.0
 20
0.0
 11
12.0
 21
9.0
 12
0.0
 22
0.0
 32
0.0
 14
-4.5223621727
 24
-5.8754331044
 34
0.0
 15
4.3976378419
 25
2.6265674995
 35
0.0
146
0.0
 13
0.0
 23
0.0
 33
0.0
 16
1.0
 26
0.0
 36
0.0
 17
0.0
 27
1.0
 37
0.0
 76
     0
330
1F
331
29
  0
MLINESTYLE
  5
18
102
{ACAD_REACTORS
330
17
102
}
330
17
100
AcDbMlineStyle
  2
Standard
 70
     0
  3

 62
   256
 51
90.0
 52
90.0
 71
     2
 49
0.5
 62
   256
  6
BYLAYER
 49
-0.5
 62
   256
  6
BYLAYER
  0
ACDBPLACEHOLDER
  5
F
102
{ACAD_REACTORS
330
E
102
}
330
E
  0
SCALE
  5
48
102
{ACAD_REACTORS
330
47
102
}
330
47
100
AcDbScale
 70
     0
300
1:1
140
1.0
141
1.0
290
     1
  0
SCALE
  5
49
102
{ACAD_REACTORS
330
47
102
}
330
47
100
AcDbScale
 70
     0
300
1:2
140
1.0
141
2.0
290
     0
  0
SCALE
  5
4A
102
{ACAD_REACTORS
330
47
102
}
330
47
100
AcDbScale
 70
     0
300
1:4
140
1.0
141
4.0
290
     0
  0
SCALE
  5
4B
102
{ACAD_REACTORS
330
47
102
}
330
47
100
AcDbScale
 70
     0
300
1:5
140
1.0
141
5.0
290
     0
  0
SCALE
  5
4C
102
{ACAD_REACTORS
330
47
102
}
330
47
100
AcDbScale
 70
     0
300
1:8
140
1.0
141
8.0
290
     0
  0
SCALE
  5
4D
102
{ACAD_REACTORS
330
47
102
}
330
47
100
AcDbScale
 70
     0
300
1:10
140
1.0
141
10.0
290
     0
  0
SCALE
  5
4E
102
{ACAD_REACTORS
330
47
102
}
330
47
100
AcDbScale
 70
     0
300
1:16
140
1.0
141
16.0
290
     0
  0
SCALE
  5
4F
102
{ACAD_REACTORS
330
47
102
}
330
47
100
AcDbScale
 70
     0
300
1:20
140
1.0
141
20.0
290
     0
  0
SCALE
  5
50
102
{ACAD_REACTORS
330
47
102
}
330
47
100
AcDbScale
 70
     0
300
1:30
140
1.0
141
30.0
290
     0
  0
SCALE
  5
51
102
{ACAD_REACTORS
330
47
102
}
330
47
100
AcDbScale
 70
     0
300
1:40
140
1.0
141
40.0
290
     0
  0
SCALE
  5
52
102
{ACAD_REACTORS
330
47
102
}
330
47
100
AcDbScale
 70
     0
300
1:50
140
1.0
141
50.0
290
     0
  0
SCALE
  5
53
102
{ACAD_REACTORS
330
47
102
}
330
47
100
AcDbScale
 70
     0
300
1:100
140
1.0
141
100.0
290
     0
  0
SCALE
  5
54
102
{ACAD_REACTORS
330
47
102
}
330
47
100
AcDbScale
 70
     0
300
2:1
140
2.0
141
1.0
290
     0
  0
SCALE
  5
55
102
{ACAD_REACTORS
330
47
102
}
330
47
100
AcDbScale
 70
     0
300
4:1
140
4.0
141
1.0
290
     0
  0
SCALE
  5
56
102
{ACAD_REACTORS
330
47
102
}
330
47
100
AcDbScale
 70
     0
300
8:1
140
8.0
141
1.0
290
     0
  0
SCALE
  5
57
102
{ACAD_REACTORS
330
47
102
}
330
47
100
AcDbScale
 70
     0
300
10:1
140
10.0
141
1.0
290
     0
  0
SCALE
  5
58
102
{ACAD_REACTORS
330
47
102
}
330
47
100
AcDbScale
 70
     0
300
100:1
140
100.0
141
1.0
290
     0
  0
SCALE
  5
59
102
{ACAD_REACTORS
330
47
102
}
330
47
100
AcDbScale
 70
     0
300
1/128" = 1'-0"
140
0.0078125
141
12.0
290
     0
  0
SCALE
  5
5A
102
{ACAD_REACTORS
330
47
102
}
330
47
100
AcDbScale
 70
     0
300
1/64" = 1'-0"
140
0.015625
141
12.0
290
     0
  0
SCALE
  5
5B
102
{ACAD_REACTORS
330
47
102
}
330
47
100
AcDbScale
 70
     0
300
1/32" = 1'-0"
140
0.03125
141
12.0
290
     0
  0
SCALE
  5
5C
102
{ACAD_REACTORS
330
47
102
}
330
47
100
AcDbScale
 70
     0
300
1/16" = 1'-0"
140
0.0625
141
12.0
290
     0
  0
SCALE
  5
5D
102
{ACAD_REACTORS
330
47
102
}
330
47
100
AcDbScale
 70
     0
300
3/32" = 1'-0"
140
0.09375
141
12.0
290
     0
  0
SCALE
  5
5E
102
{ACAD_REACTORS
330
47
102
}
330
47
100
AcDbScale
 70
     0
300
1/8" = 1'-0"
140
0.125
141
12.0
290
     0
  0
SCALE
  5
5F
102
{ACAD_REACTORS
330
47
102
}
330
47
100
AcDbScale
 70
     0
300
3/16" = 1'-0"
140
0.1875
141
12.0
290
     0
  0
SCALE
  5
60
102
{ACAD_REACTORS
330
47
102
}
330
47
100
AcDbScale
 70
     0
300
1/4" = 1'-0"
140
0.25
141
12.0
290
     0
  0
SCALE
  5
61
102
{ACAD_REACTORS
330
47
102
}
330
47
100
AcDbScale
 70
     0
300
3/8" = 1'-0"
140
0.375
141
12.0
290
     0
  0
SCALE
  5
62
102
{ACAD_REACTORS
330
47
102
}
330
47
100
AcDbScale
 70
     0
300
1/2" = 1'-0"
140
0.5
141
12.0
290
     0
  0
SCALE
  5
63
102
{ACAD_REACTORS
330
47
102
}
330
47
100
AcDbScale
 70
     0
300
3/4" = 1'-0"
140
0.75
141
12.0
290
     0
  0
SCALE
  5
64
102
{ACAD_REACTORS
330
47
102
}
330
47
100
AcDbScale
 70
     0
300
1" = 1'-0"
140
1.0
141
12.0
290
     0
  0
SCALE
  5
65
102
{ACAD_REACTORS
330
47
102
}
330
47
100
AcDbScale
 70
     0
300
1-1/2" = 1'-0"
140
1.5
141
12.0
290
     0
  0
SCALE
  5
66
102
{ACAD_REACTORS
330
47
102
}
330
47
100
AcDbScale
 70
     0
300
3" = 1'-0"
140
3.0
141
12.0
290
     0
  0
SCALE
  5
67
102
{ACAD_REACTORS
330
47
102
}
330
47
100
AcDbScale
 70
     0
300
6" = 1'-0"
140
6.0
141
12.0
290
     0
  0
SCALE
  5
68
102
{ACAD_REACTORS
330
47
102
}
330
47
100
AcDbScale
 70
     0
300
1'-0" = 1'-0"
140
12.0
141
12.0
290
     0
  0
ENDSEC
  0
EOF
